# xmcd
#
# Track frame offsets:
#	150
#	19188
#	33805
#	50253
#	64953
#	82488
#	99683
#	120420
#	134728
#	153750
#	175140
#	189428
#	203005
#	216905
#	229710
#	243785
#
# Disc length: 3435 seconds
#
# Revision: 0
# Processed by: cddbd v1.4PL0 Copyright (c) Steve Scherf et al.
# Submitted via: dBpowerAMP V4.0
#
DISCID=d80d6910
DTITLE=Lena Horne - Lena Horne - When I Fall In Love
DYEAR=1900
DGENRE=Blues
TTITLE0=Close Enough For Love
TTITLE1=Ours
TTITLE2=Ev'ry Time We Say Goodbye
TTITLE3=A Fine Romance
TTITLE4=Roundabout
TTITLE5=September Song
TTITLE6=Joy
TTITLE7=The Eagle And Me
TTITLE8=When I Fall In Love
TTITLE9=Look To The Rainbow
TTITLE10=It Could Happen To You
TTITLE11=Sing My Heart
TTITLE12=Squeeze Me
TTITLE13=Whispering
TTITLE14=Hesitation Blues
TTITLE15=Beale Street Blues
EXTD=Lena Horne - When I Fall In Love\n\n 1. Lena Horne - Close Enough For Love\n 2. Lena Horne - Ours\n 3. Lena Horne - Ev'ry Time We Say Goodbye\n 4. Lena Horne - A Fine Romance\n 5. Lena Horne - Roundabout\n 6. Lena Horne - September Song\n 7. Lena H
EXTD=orne /Joy\n 8. Lena Horne - The Eagle And Me\n 9. Lena Horne - When I Fall In Love\n10. Lena Horne - Look To The Rainbow\n11. Lena Horne - It Could Happen To You\n12. Lena Horne - Sing My Heart\n13. Lena Horne - Squeeze Me\n14. Lena Horne - Whisper
EXTD=ing\n15. Lena Horne - Hesitation Blues\n16. Lena Horne - Beale Street Blues
EXTT0=
EXTT1=
EXTT2=
EXTT3=
EXTT4=
EXTT5=
EXTT6=
EXTT7=
EXTT8=
EXTT9=
EXTT10=
EXTT11=
EXTT12=
EXTT13=
EXTT14=
EXTT15=
PLAYORDER=
